# xmcd
#
# Track frame offsets: 
#        150
#        19118
#        34684
#        47172
#        65567
#        82582
#        95580
#        121773
#        144915
#        160238
#        174157
#        193370
#        209215
#
# Disc length: 2960 seconds
#
# Revision: 0
# Processed by: cddbd v1.5.2PL0 Copyright (c) Steve Scherf et al.
# Submitted via: ExactAudioCopy v0.95a4
#
DISCID=ad0b8e0d
DTITLE=Daddy Mack Blues Band - Blues Central
DYEAR=2014
DGENRE=Blues
TTITLE0=Blues Doctor
TTITLE1=Hard On Me
TTITLE2=Doorman
TTITLE3=Daily Blues
TTITLE4=On The Rebound
TTITLE5=Memphis Gives Me The Blues
TTITLE6=Almost Left You
TTITLE7=Finish What You Started (Don't Stop Now)
TTITLE8=Sensational Sally
TTITLE9=Sharp-Dressed Lady
TTITLE10=Watermelon Man
TTITLE11=Everybody Have Fun
TTITLE12=Lonesome Train Blues
EXTD=
EXTT0=
EXTT1=
EXTT2=
EXTT3=
EXTT4=
EXTT5=
EXTT6=
EXTT7=
EXTT8=
EXTT9=
EXTT10=
EXTT11=
EXTT12=
PLAYORDER=
